<?xml version="1.0" encoding="utf-8" ?>
<svg xmlns="http://www.w3.org/2000/svg" xmlns:xlink="http://www.w3.org/1999/xlink" width="133" height="119.6992" viewBox="0 0 133 119.6992">
	<path d="M0 6.60339C0.0253291 2.96957 2.96298 0.0288757 6.5968 0L126.403 0C130.047 0 133 2.95918 133 6.60339L133 113.097C132.975 116.73 130.037 119.671 126.403 119.7L6.5968 119.7C2.95259 119.696 0 116.741 0 113.097L0 6.60339ZM119.701 13.3003L13.3008 13.3003L13.3008 106.4L75.0926 44.595C77.6895 41.9991 81.8989 41.9991 84.4958 44.595L119.701 79.8666L119.701 13.3003ZM26.5992 39.8998C26.5992 47.2451 32.5538 53.1998 39.8992 53.1998C47.2446 53.1998 53.1992 47.2451 53.1992 39.8998C53.1992 32.5543 47.2446 26.5998 39.8992 26.5998C32.5538 26.5998 26.5992 32.5543 26.5992 39.8998Z" fill-rule="evenodd" transform="matrix(1 0 0 1 0.000137329 -6.10352e-05)" fill="rgb(104, 119, 135)" fill-opacity="0.5"/>
</svg>
